<svg width="38" height="38" viewBox="0 0 38 38" fill="none" xmlns="http://www.w3.org/2000/svg">
<rect width="38" height="38" rx="19" fill="white"/>
<path d="M26.9165 5.28824C29.3046 6.6671 31.2912 8.64574 32.6795 11.0283C34.0679 13.4109 34.81 16.1147 34.8323 18.8722C34.8545 21.6297 34.1563 24.3452 32.8065 26.7498C31.4568 29.1545 29.5025 31.165 27.137 32.5823C24.7715 33.9995 22.0768 34.7744 19.3198 34.8302C16.5628 34.886 13.839 34.2208 11.4181 32.9004C8.99722 31.58 6.96313 29.6502 5.51723 27.3021C4.07132 24.9541 3.26374 22.269 3.17442 19.5129L3.1665 18.9999L3.17442 18.4869C3.26309 15.7525 4.05879 13.0877 5.48393 10.7523C6.90908 8.41695 8.91504 6.49071 11.3062 5.16139C13.6975 3.83207 16.3923 3.14504 19.1281 3.16727C21.8639 3.1895 24.5472 3.92024 26.9165 5.28824ZM24.8693 14.7138C24.5966 14.4412 24.2339 14.2775 23.8491 14.2533C23.4643 14.2291 23.0839 14.3461 22.7793 14.5824L22.6304 14.7138L17.4165 19.9262L15.3693 17.8805L15.2204 17.7491C14.9158 17.5129 14.5354 17.396 14.1507 17.4203C13.766 17.4446 13.4034 17.6083 13.1308 17.8809C12.8583 18.1535 12.6945 18.5161 12.6702 18.9008C12.646 19.2855 12.7629 19.6658 12.999 19.9705L13.1304 20.1193L16.2971 23.286L16.4459 23.4174C16.7236 23.6328 17.0651 23.7498 17.4165 23.7498C17.768 23.7498 18.1094 23.6328 18.3871 23.4174L18.5359 23.286L24.8693 16.9527L25.0007 16.8038C25.237 16.4992 25.354 16.1188 25.3298 15.734C25.3056 15.3492 25.1419 14.9865 24.8693 14.7138Z" fill="#51D875"/>
</svg>
